<svg xmlns="http://www.w3.org/2000/svg" viewBox="0 0 256 256" focusable="false" color="var(--token-48e03a75-dfba-45f8-be7a-5ebb742f6ff1, rgb(118, 84, 106))" style="user-select: none; width: 100%; height: 100%; display: inline-block; fill: var(--token-48e03a75-dfba-45f8-be7a-5ebb742f6ff1, rgb(118, 84, 106)); color: var(--token-48e03a75-dfba-45f8-be7a-5ebb742f6ff1, rgb(118, 84, 106)); flex-shrink: 0;"><g color="var(--token-48e03a75-dfba-45f8-be7a-5ebb742f6ff1, rgb(118, 84, 106))" weight="duotone"><path d="M80,104V208H32a8,8,0,0,1-8-8V112a8,8,0,0,1,8-8Z" opacity="0.2"></path><path d="M234,80.12A24,24,0,0,0,216,72H160V56a40,40,0,0,0-40-40,8,8,0,0,0-7.16,4.42L75.06,96H32a16,16,0,0,0-16,16v88a16,16,0,0,0,16,16H204a24,24,0,0,0,23.82-21l12-96A24,24,0,0,0,234,80.12ZM32,112H72v88H32ZM223.94,97l-12,96a8,8,0,0,1-7.94,7H88V105.89l36.71-73.43A24,24,0,0,1,144,56V80a8,8,0,0,0,8,8h64a8,8,0,0,1,7.94,9Z"></path></g></svg>